<svg xmlns="http://www.w3.org/2000/svg" viewBox="0 0 200 200" width="200" height="200">
  <path d="M109.60,90.28 L109.62,90.94 L109.60,91.51 L109.56,92.09 L109.49,92.68 L109.39,93.26 L109.26,93.84 L109.10,94.43 L108.90,95.00 L108.66,95.57 L108.38,96.12 L108.08,96.67 L107.74,97.20 L107.38,97.72 L106.99,98.23 L106.57,98.72 L106.13,99.19 L105.66,99.65 L105.16,100.08 L104.64,100.49 L104.10,100.88 L103.53,101.24 L102.95,101.58 L102.34,101.89 L101.71,102.17 L101.07,102.43 L100.41,102.65 L99.73,102.84 L99.04,103.00 L98.34,103.13 L97.63,103.22 L96.90,103.28 L96.18,103.30 L95.44,103.29 L94.70,103.24 L93.96,103.16 L93.22,103.04 L92.48,102.88 L91.75,102.68 L91.01,102.44 L90.29,102.17 L89.58,101.86 L88.87,101.51 L88.18,101.13 L87.50,100.71 L86.84,100.25 L86.20,99.76 L85.58,99.24 L84.98,98.68 L84.41,98.08 L83.86,97.46 L83.34,96.80 L82.84,96.11 L82.38,95.40 L81.95,94.66 L81.56,93.89 L81.20,93.10 L80.87,92.28 L80.59,91.45 L80.34,90.59 L80.14,89.72 L79.97,88.83 L79.85,87.93 L79.78,87.02 L79.75,86.10 L79.76,85.17 L79.82,84.24 L79.92,83.30 L80.08,82.36 L80.27,81.42 L80.52,80.49 L80.82,79.57 L81.16,78.65 L81.55,77.74 L81.98,76.85 L82.47,75.98 L83.00,75.12 L83.57,74.28 L84.19,73.47 L84.86,72.68 L85.56,71.92 L86.31,71.19 L87.10,70.50 L87.93,69.83 L88.79,69.21 L89.70,68.62 L90.63,68.07 L91.60,67.57 L92.60,67.11 L93.63,66.70 L94.69,66.34 L95.77,66.02 L96.87,65.76 L97.99,65.55 L99.13,65.40 L100.29,65.29 L101.46,65.25 L102.63,65.26 L103.81,65.34 L105.00,65.47 L106.19,65.66 L107.37,65.90 L108.55,66.21 L109.72,66.58 L110.88,67.01 L112.03,67.50 L113.16,68.05 L114.27,68.66 L115.36,69.33 L116.42,70.05 L117.45,70.83 L118.45,71.67 L119.41,72.56 L120.34,73.50 L121.22,74.50 L122.06,75.55 L122.86,76.64 L123.60,77.78 L124.30,78.96 L124.94,80.19 L125.52,81.45 L126.05,82.75 L126.51,84.09 L126.91,85.45 L127.25,86.85 L127.52,88.27 L127.72,89.71 L127.85,91.17 L127.91,92.64 L127.90,94.13 L127.81,95.63 L127.65,97.13 L127.41,98.63 L127.10,100.13 L126.71,101.62 L126.25,103.11 L125.71,104.58 L125.10,106.03 L124.41,107.46 L123.64,108.87 L122.80,110.25 L121.89,111.59 L120.90,112.90 L119.85,114.16 L118.72,115.39 L117.53,116.56 L116.28,117.69 L114.96,118.75 L113.57,119.76 L112.14,120.71 L110.64,121.59 L109.09,122.41 L107.50,123.15 L105.85,123.82 L104.16,124.41 L102.44,124.92 L100.68,125.35 L98.88,125.70 L97.06,125.96 L95.21,126.13 L93.35,126.21 L91.46,126.20 L89.57,126.09 L87.67,125.90 L85.77,125.60 L83.87,125.21 L81.98,124.73 L80.10,124.15 L78.24,123.47 L76.40,122.70 L74.58,121.83 L72.80,120.87 L71.06,119.81 L69.35,118.66 L67.70,117.42 L66.09,116.09 L64.54,114.67 L63.05,113.17 L61.62,111.58 L60.27,109.91 L58.98,108.17 L57.78,106.35 L56.66,104.46 L55.62,102.51 L54.68,100.49 L53.83,98.41 L53.07,96.28 L52.42,94.10 L51.87,91.87 L51.43,89.60 L51.09,87.30 L50.87,84.96 L50.76,82.60 L50.77,80.22 L50.89,77.82 L51.13,75.42 L51.50,73.01 L51.98,70.61 L52.59,68.21 L53.32,65.83 L54.28,63.12 L25.44,54.14 L24.48,57.62 L23.59,61.47 L22.91,65.33 L22.41,69.20 L22.11,73.05 L22.00,76.88 L22.08,80.69 L22.34,84.46 L22.78,88.19 L23.40,91.87 L24.19,95.48 L25.15,99.02 L26.28,102.49 L27.56,105.87 L29.00,109.16 L30.58,112.35 L32.31,115.44 L34.17,118.42 L36.17,121.28 L38.28,124.03 L40.51,126.64 L42.85,129.13 L45.28,131.48 L47.82,133.69 L50.43,135.76 L53.13,137.68 L55.90,139.46 L58.73,141.08 L61.61,142.56 L64.54,143.88 L67.51,145.05 L70.52,146.07 L73.54,146.93 L76.59,147.63 L79.64,148.18 L82.69,148.58 L85.73,148.83 L88.76,148.93 L91.78,148.88 L94.76,148.68 L97.70,148.34 L100.61,147.86 L103.47,147.24 L106.27,146.49 L109.01,145.60 L111.69,144.60 L114.29,143.47 L116.82,142.22 L119.27,140.86 L121.62,139.40 L123.89,137.83 L126.06,136.16 L128.13,134.41 L130.10,132.57 L131.97,130.64 L133.72,128.65 L135.36,126.58 L136.89,124.46 L138.30,122.27 L139.59,120.04 L140.76,117.76 L141.82,115.45 L142.75,113.10 L143.55,110.73 L144.24,108.34 L144.81,105.94 L145.25,103.53 L145.57,101.12 L145.77,98.71 L145.86,96.31 L145.82,93.93 L145.67,91.58 L145.41,89.25 L145.04,86.95 L144.55,84.69 L143.96,82.47 L143.27,80.30 L142.48,78.19 L141.60,76.12 L140.62,74.12 L139.55,72.19 L138.40,70.32 L137.16,68.53 L135.85,66.81 L134.47,65.16 L133.01,63.60 L131.50,62.13 L129.93,60.74 L128.30,59.44 L126.62,58.22 L124.90,57.10 L123.13,56.08 L121.34,55.15 L119.51,54.31 L117.66,53.57 L115.79,52.92 L113.90,52.38 L112.00,51.92 L110.10,51.57 L108.19,51.31 L106.29,51.14 L104.40,51.07 L102.52,51.09 L100.65,51.21 L98.81,51.41 L96.99,51.70 L95.21,52.08 L93.45,52.54 L91.74,53.08 L90.06,53.70 L88.43,54.39 L86.85,55.16 L85.31,56.00 L83.83,56.91 L82.41,57.88 L81.05,58.92 L79.75,60.01 L78.51,61.15 L77.34,62.34 L76.24,63.59 L75.21,64.87 L74.25,66.19 L73.36,67.55 L72.54,68.94 L71.80,70.36 L71.14,71.80 L70.55,73.27 L70.03,74.74 L69.60,76.23 L69.23,77.73 L68.95,79.24 L68.74,80.74 L68.61,82.25 L68.55,83.74 L68.56,85.23 L68.64,86.70 L68.80,88.16 L69.03,89.60 L69.32,91.01 L69.68,92.40 L70.10,93.75 L70.59,95.08 L71.14,96.37 L71.74,97.62 L72.40,98.84 L73.12,100.01 L73.88,101.13 L74.69,102.21 L75.55,103.24 L76.45,104.22 L77.39,105.15 L78.37,106.03 L79.39,106.84 L80.43,107.61 L81.50,108.31 L82.60,108.96 L83.72,109.55 L84.86,110.08 L86.01,110.55 L87.18,110.96 L88.36,111.31 L89.54,111.59 L90.73,111.82 L91.92,111.99 L93.11,112.10 L94.29,112.15 L95.46,112.14 L96.63,112.08 L97.78,111.96 L98.92,111.79 L100.03,111.56 L101.13,111.28 L102.21,110.94 L103.25,110.56 L104.28,110.13 L105.27,109.66 L106.23,109.14 L107.15,108.58 L108.05,107.97 L108.90,107.33 L109.72,106.66 L110.49,105.95 L111.23,105.20 L111.92,104.43 L112.57,103.63 L113.18,102.81 L113.74,101.97 L114.25,101.10 L114.72,100.22 L115.14,99.32 L115.51,98.41 L115.84,97.48 L116.14,96.56 L116.40,95.63 L116.61,94.69 L116.77,93.76 L116.89,92.81 L116.96,91.87 L116.98,90.94 L116.96,90.10 Z" fill="#111111"></path>
  <circle cx="113.28" cy="90.19" r="11.96" fill="#111111"></circle>
  <path d="M157.96,115.77 L157.94,115.53 L157.94,115.33 L157.94,115.12 L157.95,114.92 L157.97,114.71 L158.00,114.50 L158.04,114.29 L158.09,114.08 L158.15,113.87 L158.21,113.67 L158.29,113.46 L158.37,113.26 L158.47,113.05 L158.57,112.85 L158.68,112.66 L158.80,112.46 L158.93,112.27 L159.07,112.09 L159.22,111.90 L159.38,111.73 L159.55,111.56 L159.72,111.39 L159.91,111.23 L160.10,111.08 L160.30,110.93 L160.50,110.79 L160.72,110.66 L160.94,110.54 L161.17,110.43 L161.40,110.32 L161.64,110.22 L161.89,110.14 L162.15,110.07 L162.40,110.02 L162.67,109.97 L162.93,109.94 L163.20,109.92 L163.48,109.90 L163.75,109.90 L164.03,109.92 L164.30,109.94 L164.58,109.97 L164.86,110.02 L165.13,110.08 L165.41,110.15 L165.68,110.23 L165.95,110.33 L166.22,110.43 L166.49,110.55 L166.75,110.68 L167.01,110.83 L167.26,110.98 L167.51,111.15 L167.76,111.32 L167.99,111.51 L168.22,111.71 L168.45,111.92 L168.66,112.14 L168.87,112.38 L169.07,112.62 L169.26,112.87 L169.44,113.13 L169.61,113.40 L169.77,113.68 L169.92,113.96 L170.05,114.26 L170.18,114.56 L170.29,114.87 L170.39,115.18 L170.48,115.50 L170.56,115.83 L170.62,116.16 L170.67,116.50 L170.70,116.84 L170.72,117.18 L170.73,117.52 L170.72,117.87 L170.70,118.22 L170.66,118.57 L170.61,118.92 L170.54,119.27 L170.45,119.62 L170.35,119.97 L170.24,120.31 L170.11,120.66 L169.97,121.00 L169.81,121.33 L169.63,121.66 L169.44,121.98 L169.24,122.30 L169.02,122.61 L168.79,122.91 L168.54,123.21 L168.28,123.50 L168.01,123.77 L167.72,124.04 L167.42,124.30 L167.10,124.54 L166.78,124.77 L166.44,124.99 L166.10,125.20 L165.74,125.39 L165.37,125.57 L164.99,125.74 L164.60,125.89 L164.21,126.02 L163.81,126.14 L163.39,126.24 L162.98,126.33 L162.55,126.40 L162.13,126.45 L161.69,126.48 L161.26,126.50 L160.82,126.49 L160.38,126.47 L159.93,126.43 L159.49,126.37 L159.05,126.29 L158.60,126.19 L158.16,126.07 L157.73,125.94 L157.29,125.78 L156.86,125.61 L156.43,125.41 L156.01,125.20 L155.60,124.97 L155.20,124.72 L154.80,124.45 L154.41,124.16 L154.03,123.85 L153.67,123.53 L153.31,123.19 L152.97,122.83 L152.64,122.46 L152.32,122.07 L152.02,121.66 L151.74,121.24 L151.47,120.81 L151.22,120.36 L150.98,119.90 L150.77,119.43 L150.57,118.94 L150.39,118.44 L150.23,117.94 L150.09,117.42 L149.98,116.90 L149.88,116.36 L149.81,115.83 L149.76,115.28 L149.73,114.73 L149.73,114.18 L149.75,113.62 L149.79,113.06 L149.85,112.50 L149.94,111.93 L150.06,111.37 L150.20,110.82 L150.36,110.26 L150.55,109.71 L150.76,109.16 L151.00,108.62 L151.26,108.08 L151.54,107.56 L151.85,107.04 L152.18,106.53 L152.54,106.04 L152.91,105.55 L153.31,105.08 L153.74,104.63 L154.18,104.19 L154.65,103.77 L155.13,103.36 L155.64,102.97 L156.16,102.60 L156.70,102.25 L157.26,101.92 L157.84,101.62 L158.43,101.34 L159.04,101.08 L159.66,100.84 L160.30,100.63 L160.95,100.45 L161.61,100.29 L162.28,100.16 L162.96,100.05 L163.65,99.98 L164.34,99.93 L165.04,99.91 L165.74,99.92 L166.45,99.97 L167.16,100.04 L167.87,100.14 L168.58,100.27 L169.29,100.44 L170.00,100.63 L170.70,100.86 L171.39,101.11 L172.08,101.40 L172.76,101.72 L173.53,102.11 L178.00,92.49 L177.00,92.06 L175.89,91.64 L174.76,91.26 L173.63,90.93 L172.50,90.66 L171.36,90.43 L170.22,90.25 L169.08,90.12 L167.94,90.04 L166.81,90.01 L165.68,90.02 L164.56,90.09 L163.46,90.19 L162.36,90.35 L161.28,90.54 L160.22,90.79 L159.17,91.07 L158.15,91.40 L157.14,91.76 L156.16,92.17 L155.20,92.61 L154.26,93.09 L153.36,93.61 L152.48,94.16 L151.63,94.74 L150.81,95.36 L150.02,96.00 L149.26,96.67 L148.54,97.37 L147.85,98.10 L147.20,98.84 L146.58,99.61 L146.00,100.40 L145.46,101.21 L144.95,102.04 L144.49,102.88 L144.06,103.73 L143.67,104.60 L143.32,105.47 L143.00,106.36 L142.73,107.25 L142.50,108.15 L142.30,109.05 L142.14,109.95 L142.03,110.85 L141.95,111.75 L141.91,112.64 L141.90,113.54 L141.94,114.42 L142.01,115.30 L142.12,116.17 L142.26,117.03 L142.43,117.87 L142.65,118.70 L142.89,119.52 L143.17,120.32 L143.48,121.11 L143.81,121.87 L144.18,122.62 L144.58,123.34 L145.00,124.05 L145.45,124.73 L145.93,125.39 L146.43,126.02 L146.95,126.63 L147.50,127.21 L148.06,127.76 L148.64,128.29 L149.25,128.79 L149.86,129.26 L150.50,129.70 L151.14,130.11 L151.80,130.49 L152.47,130.84 L153.15,131.16 L153.84,131.45 L154.54,131.71 L155.24,131.94 L155.95,132.14 L156.66,132.31 L157.37,132.44 L158.08,132.55 L158.79,132.62 L159.50,132.66 L160.21,132.68 L160.91,132.66 L161.61,132.62 L162.30,132.55 L162.98,132.45 L163.65,132.32 L164.31,132.16 L164.96,131.98 L165.60,131.77 L166.23,131.54 L166.84,131.28 L167.43,131.00 L168.01,130.69 L168.57,130.36 L169.12,130.02 L169.65,129.65 L170.15,129.26 L170.64,128.86 L171.11,128.43 L171.56,127.99 L171.98,127.54 L172.38,127.07 L172.77,126.58 L173.12,126.09 L173.46,125.58 L173.77,125.07 L174.06,124.54 L174.32,124.00 L174.56,123.46 L174.77,122.91 L174.96,122.36 L175.13,121.80 L175.27,121.24 L175.39,120.68 L175.48,120.12 L175.55,119.56 L175.59,119.00 L175.61,118.44 L175.61,117.88 L175.58,117.33 L175.53,116.78 L175.46,116.24 L175.37,115.71 L175.26,115.18 L175.12,114.66 L174.96,114.16 L174.79,113.66 L174.59,113.17 L174.37,112.69 L174.14,112.23 L173.89,111.78 L173.62,111.34 L173.34,110.92 L173.04,110.51 L172.72,110.12 L172.39,109.75 L172.05,109.39 L171.70,109.04 L171.33,108.72 L170.95,108.41 L170.57,108.12 L170.17,107.85 L169.76,107.60 L169.35,107.36 L168.93,107.15 L168.50,106.95 L168.07,106.77 L167.64,106.62 L167.20,106.48 L166.76,106.36 L166.31,106.26 L165.87,106.18 L165.42,106.12 L164.98,106.07 L164.54,106.05 L164.10,106.04 L163.66,106.06 L163.23,106.09 L162.80,106.14 L162.37,106.20 L161.95,106.29 L161.54,106.39 L161.14,106.51 L160.74,106.64 L160.35,106.78 L159.96,106.93 L159.59,107.10 L159.22,107.28 L158.87,107.48 L158.52,107.69 L158.18,107.92 L157.86,108.15 L157.55,108.40 L157.25,108.67 L156.96,108.94 L156.69,109.22 L156.43,109.51 L156.18,109.81 L155.95,110.12 L155.73,110.44 L155.52,110.77 L155.34,111.10 L155.16,111.43 L155.00,111.78 L154.86,112.12 L154.73,112.48 L154.62,112.83 L154.52,113.19 L154.44,113.55 L154.37,113.91 L154.32,114.27 L154.28,114.63 L154.26,114.99 L154.26,115.35 L154.27,115.71 L154.29,116.03 Z" fill="#111111"></path>
  <circle cx="156.12" cy="115.90" r="5.52" fill="#111111"></circle>
</svg>