<svg xmlns="http://www.w3.org/2000/svg" viewBox="0 0 200 200" width="200" height="200">
  <path d="M122.93,122.34 L122.68,122.98 L122.44,123.50 L122.17,124.02 L121.87,124.53 L121.54,125.03 L121.18,125.51 L120.80,125.98 L120.38,126.44 L119.93,126.87 L119.46,127.29 L118.96,127.68 L118.44,128.06 L117.89,128.41 L117.30,128.71 L116.70,128.97 L116.07,129.21 L115.43,129.41 L114.77,129.58 L114.10,129.72 L113.42,129.82 L112.72,129.89 L112.02,129.92 L111.31,129.91 L110.60,129.87 L109.89,129.78 L109.18,129.66 L108.46,129.50 L107.75,129.31 L107.05,129.07 L106.36,128.79 L105.67,128.48 L105.00,128.13 L104.34,127.74 L103.70,127.31 L103.07,126.85 L102.47,126.35 L101.89,125.81 L101.33,125.24 L100.80,124.64 L100.30,124.00 L99.82,123.34 L99.38,122.64 L98.98,121.92 L98.61,121.17 L98.27,120.39 L97.98,119.60 L97.73,118.78 L97.51,117.94 L97.34,117.09 L97.22,116.22 L97.14,115.34 L97.10,114.45 L97.11,113.55 L97.17,112.65 L97.28,111.74 L97.44,110.83 L97.65,109.93 L97.90,109.03 L98.20,108.14 L98.56,107.26 L98.96,106.39 L99.41,105.53 L99.91,104.70 L100.46,103.88 L101.05,103.09 L101.69,102.33 L102.37,101.59 L103.10,100.89 L103.87,100.22 L104.68,99.58 L105.53,98.99 L106.41,98.43 L107.34,97.92 L108.29,97.45 L109.28,97.03 L110.29,96.66 L111.33,96.35 L112.39,96.08 L113.48,95.87 L114.58,95.71 L115.70,95.62 L116.83,95.58 L117.97,95.60 L119.12,95.68 L120.27,95.82 L121.42,96.02 L122.57,96.29 L123.71,96.62 L124.84,97.01 L125.96,97.46 L127.07,97.98 L128.15,98.56 L129.21,99.20 L130.24,99.90 L131.24,100.65 L132.21,101.47 L133.14,102.34 L134.03,103.27 L134.88,104.25 L135.68,105.28 L136.43,106.36 L137.13,107.49 L137.78,108.67 L138.37,109.88 L138.89,111.14 L139.36,112.43 L139.76,113.75 L140.09,115.10 L140.35,116.48 L140.54,117.88 L140.66,119.31 L140.70,120.74 L140.67,122.19 L140.56,123.65 L140.38,125.11 L140.11,126.58 L139.77,128.03 L139.34,129.48 L138.84,130.92 L138.26,132.33 L137.60,133.73 L136.86,135.10 L136.04,136.44 L135.15,137.75 L134.18,139.02 L133.14,140.25 L132.02,141.42 L130.84,142.55 L129.59,143.62 L128.27,144.64 L126.89,145.59 L125.46,146.47 L123.96,147.28 L122.42,148.02 L120.82,148.69 L119.18,149.27 L117.49,149.77 L115.77,150.19 L114.02,150.51 L112.24,150.75 L110.43,150.89 L108.60,150.94 L106.76,150.89 L104.91,150.74 L103.05,150.50 L101.20,150.15 L99.35,149.71 L97.51,149.16 L95.69,148.51 L93.89,147.77 L92.12,146.92 L90.38,145.97 L88.68,144.93 L87.02,143.79 L85.42,142.55 L83.87,141.22 L82.37,139.80 L80.95,138.29 L79.59,136.69 L78.31,135.02 L77.11,133.26 L76.00,131.43 L74.97,129.53 L74.04,127.56 L73.21,125.53 L72.47,123.44 L71.85,121.30 L71.33,119.11 L70.93,116.88 L70.64,114.61 L70.46,112.31 L70.41,109.99 L70.49,107.65 L70.68,105.30 L71.00,102.94 L71.45,100.59 L72.03,98.24 L72.73,95.91 L73.56,93.60 L74.52,91.32 L75.61,89.07 L76.82,86.87 L78.16,84.71 L79.61,82.62 L81.20,80.58 L82.89,78.62 L84.71,76.73 L86.63,74.93 L88.67,73.21 L90.80,71.60 L93.04,70.08 L95.37,68.67 L97.80,67.38 L100.30,66.21 L102.89,65.16 L105.54,64.24 L108.27,63.46 L111.05,62.81 L113.89,62.31 L117.24,61.88 L110.99,26.00 L106.75,26.89 L102.14,28.10 L97.63,29.53 L93.24,31.18 L88.98,33.05 L84.85,35.12 L80.87,37.39 L77.04,39.84 L73.38,42.47 L69.89,45.27 L66.58,48.22 L63.45,51.32 L60.51,54.55 L57.77,57.90 L55.22,61.36 L52.88,64.93 L50.75,68.58 L48.83,72.31 L47.12,76.11 L45.63,79.96 L44.35,83.85 L43.28,87.77 L42.43,91.71 L41.79,95.66 L41.36,99.61 L41.14,103.54 L41.13,107.45 L41.32,111.31 L41.71,115.14 L42.30,118.91 L43.07,122.61 L44.04,126.24 L45.18,129.78 L46.50,133.23 L47.98,136.58 L49.62,139.82 L51.42,142.95 L53.37,145.95 L55.45,148.82 L57.66,151.56 L59.99,154.16 L62.44,156.61 L64.99,158.92 L67.64,161.06 L70.38,163.05 L73.19,164.88 L76.08,166.55 L79.02,168.05 L82.01,169.38 L85.05,170.55 L88.11,171.54 L91.20,172.37 L94.31,173.03 L97.42,173.52 L100.53,173.84 L103.62,174.00 L106.69,174.00 L109.74,173.83 L112.75,173.51 L115.71,173.04 L118.62,172.41 L121.47,171.64 L124.26,170.73 L126.97,169.69 L129.60,168.51 L132.15,167.20 L134.60,165.78 L136.96,164.24 L139.22,162.59 L141.37,160.84 L143.40,158.99 L145.32,157.06 L147.13,155.04 L148.81,152.95 L150.37,150.79 L151.80,148.57 L153.10,146.29 L154.27,143.97 L155.31,141.61 L156.22,139.22 L156.99,136.80 L157.63,134.37 L158.14,131.92 L158.51,129.47 L158.76,127.03 L158.87,124.59 L158.86,122.17 L158.72,119.77 L158.46,117.41 L158.08,115.08 L157.57,112.79 L156.96,110.54 L156.23,108.35 L155.40,106.22 L154.46,104.16 L153.43,102.16 L152.30,100.23 L151.08,98.38 L149.77,96.61 L148.39,94.92 L146.93,93.33 L145.40,91.82 L143.81,90.41 L142.15,89.09 L140.45,87.87 L138.70,86.75 L136.90,85.74 L135.07,84.82 L133.21,84.01 L131.32,83.31 L129.42,82.71 L127.50,82.21 L125.57,81.82 L123.64,81.53 L121.72,81.35 L119.80,81.26 L117.89,81.28 L116.01,81.40 L114.15,81.61 L112.31,81.92 L110.51,82.32 L108.75,82.82 L107.03,83.39 L105.35,84.06 L103.73,84.80 L102.16,85.62 L100.65,86.52 L99.19,87.49 L97.81,88.52 L96.48,89.61 L95.23,90.77 L94.05,91.98 L92.94,93.24 L91.91,94.54 L90.96,95.89 L90.08,97.27 L89.29,98.69 L88.58,100.13 L87.95,101.60 L87.40,103.08 L86.93,104.59 L86.55,106.10 L86.24,107.62 L86.02,109.14 L85.89,110.65 L85.83,112.16 L85.85,113.66 L85.95,115.14 L86.12,116.61 L86.37,118.05 L86.69,119.47 L87.08,120.85 L87.55,122.21 L88.07,123.52 L88.66,124.80 L89.32,126.03 L90.03,127.22 L90.79,128.36 L91.61,129.45 L92.48,130.49 L93.39,131.47 L94.34,132.39 L95.34,133.26 L96.37,134.07 L97.43,134.81 L98.52,135.50 L99.64,136.12 L100.78,136.67 L101.94,137.17 L103.11,137.59 L104.29,137.96 L105.48,138.25 L106.68,138.49 L107.88,138.65 L109.07,138.76 L110.26,138.80 L111.44,138.78 L112.61,138.69 L113.76,138.55 L114.89,138.35 L116.01,138.09 L117.10,137.78 L118.16,137.41 L119.19,136.99 L120.19,136.52 L121.16,136.01 L122.10,135.45 L123.01,134.87 L123.89,134.25 L124.73,133.59 L125.52,132.88 L126.28,132.15 L126.99,131.37 L127.65,130.57 L128.26,129.74 L128.83,128.88 L129.35,128.00 L129.82,127.10 L130.24,126.19 L130.57,125.35 Z" fill="#E6A817"></path>
  <circle cx="126.75" cy="123.85" r="12.77" fill="#E6A817"></circle>
</svg>